Coordinates
version=1
nRows=28
nColumns=23
inDegrees=yes

Units are S.I. units (second, meters, Newtons, ...)
If the header above contains a line with 'inDegrees', this indicates whether rotational values are in degrees (yes) or radians (no).

endheader
time	pelvis_tilt	pelvis_list	pelvis_rotation	pelvis_tx	pelvis_ty	pelvis_tz	hip_flexion_r	hip_adduction_r	hip_rotation_r	knee_angle_r	knee_angle_r_beta	ankle_angle_r	subtalar_angle_r	mtp_angle_r	hip_flexion_l	hip_adduction_l	hip_rotation_l	knee_angle_l	knee_angle_l_beta	ankle_angle_l	subtalar_angle_l	mtp_angle_l
     15.00000000	    -11.75935266	      4.21864760	      1.66850089	      2.29807256	      0.99333387	      0.98010555	     -8.55264115	     -1.33492801	     -4.96042268	     17.21643544	      0.30048348	    -17.39212734	     -3.97873333	      0.00000000	     30.45220854	      4.65302934	     -9.17512337	     18.59180395	      0.32448819	      0.49652208	      2.82895455	      0.00000000
     15.00666667	    -11.47348104	      4.14237603	      1.69930781	      2.29897863	      0.99330641	      0.97948244	     -8.52420227	     -1.46970627	     -5.18804471	     19.39965357	      0.33858783	    -17.38460911	     -3.73876149	      0.00000000	     29.55147568	      4.90405950	     -9.82272110	     16.08889425	      0.28080418	     -0.48216465	      3.75145779	      0.00000000
     15.01333333	    -11.24523765	      4.04999502	      1.80077713	      2.29962629	      0.99269149	      0.97883881	     -8.29732135	     -1.50934069	     -5.02327839	     21.84224666	      0.38121912	    -17.34133318	     -4.10085789	      0.00000000	     28.82107699	      5.19437456	    -10.14207601	     14.07683189	      0.24568706	     -1.21910074	      4.54522538	      0.00000000
     15.02000000	    -10.87749111	      4.03369645	      1.93644030	      2.30036984	      0.99173766	      0.97831199	     -8.10531738	     -1.67436856	     -5.12936962	     24.53928387	      0.42829130	    -16.86493687	     -3.66516516	      0.00000000	     27.87833806	      5.60940394	    -10.01896292	     12.25022497	      0.21380676	     -2.37086702	      4.27283129	      0.00000000
     15.02666667	    -10.52164688	      4.02868250	      2.12593211	      2.30092847	      0.99032786	      0.97781493	     -7.84899243	     -1.70047024	     -4.70757384	     27.28217493	      0.47616378	    -16.41023957	     -4.21954157	      0.00000000	     27.15893527	      5.92358759	    -10.26655341	     11.19925732	      0.19546391	     -2.95079074	      4.58935698	      0.00000000
     15.03333333	    -10.14927920	      4.10776231	      2.31054782	      2.30140851	      0.98843563	      0.97745857	     -7.45672910	     -1.82609910	     -4.34870265	     30.29768534	      0.52879436	    -15.73984645	     -4.25001443	      0.00000000	     26.47114460	      6.28632360	    -10.37313801	     10.59218790	      0.18486855	     -3.67116821	      4.41468933	      0.00000000
     15.04000000	     -9.76398490	      4.19808778	      2.66066777	      2.30180789	      0.98609234	      0.97701376	     -7.01391224	     -1.94945200	     -4.21716419	     33.43149324	      0.58348963	    -14.86496728	     -4.07155117	      0.00000000	     25.87975752	      6.66778077	    -10.26448870	     10.55229258	      0.18417225	     -4.20254989	      3.76307596	      0.00000000
     15.04666667	     -9.32416810	      4.34471772	      3.01082843	      2.30209180	      0.98341422	      0.97668179	     -6.54608003	     -2.05901312	     -3.92340280	     36.63983667	      0.63948579	    -14.05174095	     -4.26330307	      0.00000000	     25.33189875	      7.01291718	    -10.28348137	     11.07659584	      0.19332307	     -4.35846547	      3.16303494	      0.00000000
     15.05333333	     -8.89606174	      4.51910672	      3.44192624	      2.30226130	      0.98028711	      0.97633896	     -5.97999641	     -2.20743348	     -3.80002301	     39.95737187	      0.69738770	    -13.19358416	     -4.33797613	      0.00000000	     24.91252163	      7.34601013	    -10.20473063	     12.18833068	      0.21272650	     -4.14643056	      2.39036518	      0.00000000
     15.06000000	     -8.47188057	      4.72185360	      3.89583437	      2.30232241	      0.97675501	      0.97603711	     -5.32356257	     -2.39351255	     -3.75861711	     43.34762477	      0.75655878	    -12.37877930	     -4.44601986	      0.00000000	     24.58228955	      7.66099363	    -10.01370376	     13.79299427	      0.24073316	     -3.52333887	      1.48100198	      0.00000000
     15.06666667	     -7.88424481	      4.99043770	      4.32975816	      2.30234115	      0.97308646	      0.97580374	     -4.79781488	     -2.64991753	     -3.76853577	     46.72491429	      0.81550360	    -11.69809399	     -4.79968717	      0.00000000	     24.07525651	      8.01696062	     -9.61237161	     15.69365798	      0.27390600	     -2.45748452	      0.35573719	      0.00000000
     15.07333333	     -7.62150464	      5.14248984	      4.83536443	      2.30200354	      0.96861891	      0.97549380	     -3.76228113	     -2.88658057	     -3.97542235	     50.26883431	      0.87735667	    -10.98929502	     -4.86685956	      0.00000000	     24.05598011	      8.28018512	     -8.96908259	     18.07911762	      0.31554013	     -0.95077742	     -0.74789353	      0.00000000
     15.08000000	     -7.21963111	      5.35417097	      5.26309076	      2.30158645	      0.96409308	      0.97524667	     -2.82627934	     -3.20007025	     -4.13291632	     53.76050335	      0.93829779	    -10.43889962	     -5.22599243	      0.00000000	     23.86411277	      8.59867987	     -8.19553088	     20.61045119	      0.35972023	      1.02137762	     -1.85092910	      0.00000000
     15.08666667	     -6.75065471	      5.55762209	      5.67501139	      2.30100731	      0.95944070	      0.97497633	     -1.89791621	     -3.55245847	     -4.34627756	     57.20933016	      0.99849117	     -9.98108243	     -5.73583382	      0.00000000	     23.56618321	      8.97962782	     -7.10565418	     23.18197915	      0.40460186	      3.16204401	     -3.20763899	      0.00000000
     15.09333333	     -6.45848419	      5.69888465	      6.05950240	      2.30014387	      0.95444687	      0.97468167	     -0.66579251	     -3.92091079	     -4.55514911	     60.67939825	      1.05905529	     -9.49858241	     -6.37004888	      0.00000000	     23.49448971	      9.32013477	     -6.04325594	     25.87062518	      0.45152759	      5.38586546	     -4.36944846	      0.00000000
     15.10000000	     -6.12506872	      5.83375976	      6.37290976	      2.29913036	      0.94951224	      0.97439820	      0.58587802	     -4.31948641	     -4.70544889	     64.05347657	      1.11794406	     -9.06226540	     -7.15648355	      0.00000000	     23.33600290	      9.65644794	     -5.02703005	     28.50255328	      0.49746340	      7.64048965	     -5.40870645	      0.00000000
     15.10666667	     -5.85545989	      5.92990248	      6.56822326	      2.29792672	      0.94459647	      0.97427122	      2.00347998	     -4.67109619	     -4.65508359	     67.33793239	      1.17526863	     -8.59238616	     -8.09309406	      0.00000000	     23.26084678	      9.85615263	     -4.38036960	     31.16728925	      0.54397182	     10.30953073	     -5.69077108	      0.00000000
     15.11333333	     -5.65692951	      5.98473232	      6.70796190	      2.29650835	      0.93983381	      0.97416300	      3.58284659	     -5.01108093	     -4.53976302	     70.50450447	      1.23053574	     -8.10778342	     -9.07380331	      0.00000000	     23.15283436	     10.07499686	     -3.56247654	     33.55916835	      0.58571798	     12.54164535	     -6.42021387	      0.00000000
     15.12000000	     -5.48252304	      5.97737846	      6.75186100	      2.29503075	      0.93531542	      0.97417793	      5.24499306	     -5.28244125	     -4.30113510	     73.49065096	      1.28265383	     -7.56925874	    -10.16791247	      0.00000000	     23.01995317	     10.09647352	     -3.12446356	     35.84080287	      0.62554002	     14.95642314	     -6.48001038	      0.00000000
     15.12666667	     -5.29140905	      5.93818418	      6.72746870	      2.29349580	      0.93116210	      0.97432587	      6.93883680	     -5.49773410	     -3.97692670	     76.27178618	      1.33119380	     -6.92750945	    -11.32152473	      0.00000000	     22.75870687	     10.00594118	     -2.84238557	     37.88942799	      0.66129527	     17.22491767	     -6.30172423	      0.00000000
     15.13333333	     -5.06181155	      5.91760653	      6.63344730	      2.29197053	      0.92755340	      0.97454591	      8.62035007	     -5.71664486	     -3.57529178	     78.82886179	      1.37582318	     -6.23125440	    -12.43582162	      0.00000000	     22.23804056	      9.95169775	     -2.43551399	     39.48767196	      0.68918989	     18.98315289	     -6.66523241	      0.00000000
     15.14000000	     -5.18341973	      5.69524350	      6.48753662	      2.29031259	      0.92389908	      0.97497608	     10.78350436	     -5.64050091	     -3.01637276	     81.20355397	      1.41726938	     -5.49094878	    -13.63898572	      0.00000000	     22.09616128	      9.53224439	     -2.46148921	     41.06910804	      0.71679116	     21.11945736	     -5.85952880	      0.00000000
     15.14666667	     -4.86920642	      5.72111890	      6.27579000	      2.28901538	      0.92140076	      0.97538945	     12.36984733	     -5.84059347	     -2.49049350	     83.23228940	      1.45267749	     -4.64412671	    -14.72588672	      0.00000000	     21.10681103	      9.33007520	     -2.45775919	     41.96308915	      0.73239407	     22.54672953	     -6.03019031	      0.00000000
     15.15333333	     -4.69257199	      5.64288653	      6.15526280	      2.28764530	      0.91925092	      0.97583896	     14.10765837	     -5.89730696	     -2.04067053	     84.99986318	      1.48352748	     -3.79850258	    -15.72200977	      0.00000000	     20.14184144	      9.02151520	     -2.43694164	     42.59825647	      0.74347983	     23.61982828	     -5.95368789	      0.00000000
     15.16000000	     -5.10349105	      5.34432264	      5.98909747	      2.28614286	      0.91674378	      0.97644452	     16.57873623	     -5.69564576	     -1.50863626	     86.58150520	      1.51113234	     -3.28156154	    -16.79596532	      0.00000000	     19.88106773	      8.28519871	     -3.04269988	     43.39394403	      0.75736720	     25.50145985	     -4.10945932	      0.00000000
     15.16666667	     -4.87097203	      5.28177414	      5.88769173	      2.28505250	      0.91573688	      0.97681039	     18.16024250	     -5.73214598	     -1.09907467	     87.74143675	      1.53137696	     -2.47104896	    -17.54314299	      0.00000000	     18.49943566	      8.03546050	     -2.93863246	     43.38395375	      0.75719284	     26.05157385	     -4.05814443	      0.00000000
     15.17333333	     -5.05058518	      5.32204136	      5.75026362	      2.28395344	      0.91467929	      0.97720441	     20.21642361	     -5.92986875	     -0.62256859	     88.72138872	      1.54848035	     -1.97484165	    -18.34582558	      0.00000000	     17.46579512	      7.79463308	     -3.28802576	     43.17900661	      0.75361583	     26.80769068	     -3.61792154	      0.00000000
     15.18000000	     -5.15274737	      5.24015497	      5.75235085	      2.28299363	      0.91426522	      0.97744003	     22.07715798	     -5.96357625	     -0.30052326	     89.34199235	      1.55931193	     -1.36171462	    -19.00494622	      0.00000000	     16.23129143	      7.52270524	     -3.34584517	     42.74946872	      0.74611898	     27.22509101	     -3.13887971	      0.00000000
